<svg width="125" height="90" viewBox="0 0 125 90" fill="none" xmlns="http://www.w3.org/2000/svg">
<path d="M65.4438 52.4918C65.5091 43.354 72.9513 35.9665 82.1226 35.9665C91.2939 35.9665 98.7359 43.354 98.8012 52.4918L65.4438 52.4918Z" fill="white"/>
<path d="M98.7076 0H65.4894V38.6782L98.7076 0Z" fill="white"/>
<path d="M59.8405 5.8209e-06C59.7752 9.13782 52.3332 16.5253 43.162 16.5253C33.9907 16.5253 26.5485 9.13784 26.4832 0L59.8405 5.8209e-06Z" fill="white"/>
<path d="M26.4832 52.4918L59.953 52.4918L59.953 13.8136L26.4832 52.4918Z" fill="white"/>
<path fill-rule="evenodd" clip-rule="evenodd" d="M87.0394 79.6192C86.6937 77.4061 85.3644 75.7772 82.7057 75.7772C80.2351 75.7772 78.5231 77.1725 78.0666 79.6192H87.0394ZM83.122 86.2183C85.2133 86.2183 86.734 85.3638 87.647 84.4692L89.8927 86.8759C88.4057 88.3914 86.3546 89.5162 83.1623 89.5162C77.6872 89.5162 74.1491 85.9079 74.1491 81.0145C74.1491 76.1644 77.8786 72.516 82.6654 72.516C88.1002 72.516 91.1818 76.6284 90.9166 82.3363H78.0666C78.5231 84.7029 80.1948 86.2183 83.122 86.2183Z" fill="white"/>
<path fill-rule="evenodd" clip-rule="evenodd" d="M0 85.93L9.58873 76.0503H0.00195701V72.9298H14.0298V76.1134L4.30946 86.0629H14.2803V89.1801H0.0178442L0 85.93Z" fill="white"/>
<path fill-rule="evenodd" clip-rule="evenodd" d="M29.0127 79.6192C28.6669 77.4061 27.3373 75.7772 24.6749 75.7772C22.2038 75.7772 20.4949 77.1725 20.0382 79.6192H29.0127ZM25.0946 86.2183C27.1862 86.2183 28.7072 85.3638 29.6204 84.4692L31.8632 86.8759C30.3792 88.3914 28.3278 89.5162 25.1348 89.5162C19.6555 89.5162 16.1201 85.9079 16.1201 81.0145C16.1201 76.1644 19.8502 72.516 24.6379 72.516C30.0737 72.516 33.1558 76.6284 32.8872 82.3363H20.0382C20.4949 84.7029 22.1669 86.2183 25.0946 86.2183Z" fill="white"/>
<path fill-rule="evenodd" clip-rule="evenodd" d="M68.0811 80.9638C68.0811 78.0493 65.8629 75.6574 62.849 75.6574C59.9025 75.6574 57.6168 77.9823 57.6168 80.9638C57.6168 83.9452 59.9025 86.307 62.849 86.307C65.8629 86.307 68.0811 83.9117 68.0811 80.9638ZM54.1074 80.9973C54.1074 75.7546 58.045 72.475 62.3871 72.475C64.5717 72.475 66.6585 73.4264 67.8822 74.9338V65.2659H71.3917V89.2662H67.8822V86.9267C66.6248 88.5347 64.538 89.5162 62.3534 89.5162C58.1495 89.5162 54.1074 86.2064 54.1074 80.9973Z" fill="white"/>
<path fill-rule="evenodd" clip-rule="evenodd" d="M92.4354 85.7298L95.6311 84.0985C96.5335 85.5997 97.999 86.4803 99.8988 86.4803C101.897 86.4803 102.932 85.4696 102.932 84.3287C102.932 83.021 100.998 82.7275 98.898 82.3038C96.0653 81.7167 93.1869 80.8027 93.1869 77.4434C93.1869 74.8648 95.6311 72.483 99.5664 72.5164C102.664 72.5164 104.96 73.7206 106.263 75.6788L103.295 77.28C102.531 76.1358 101.232 75.4186 99.5664 75.4186C97.6666 75.4186 96.6997 76.3326 96.6997 77.3767C96.6997 78.551 98.2331 78.8779 100.632 79.3983C103.366 79.9854 106.448 80.8703 106.448 84.2662C106.448 86.5179 104.465 89.5493 99.7292 89.516C96.2655 89.516 93.8331 88.1449 92.4354 85.7298Z" fill="white"/>
<path fill-rule="evenodd" clip-rule="evenodd" d="M115.963 81.9561L113.227 84.9494V89.18H109.72V65.4297H113.203L113.225 80.9816L120.616 72.9298H124.75L118.425 79.8741L125 89.18H120.992L115.963 81.9561Z" fill="white"/>
<path fill-rule="evenodd" clip-rule="evenodd" d="M43.712 72.6799C39.5551 72.6799 36.0736 75.3324 36.0736 79.7311V89.1802H39.5805V80.1562C39.5805 77.5005 41.1849 75.9277 43.8263 75.9277C46.4643 75.9277 47.8469 77.5152 47.8469 80.171V89.1802H51.3539V79.7311C51.3539 75.3324 47.869 72.6799 43.712 72.6799Z" fill="white"/>
</svg>
